<?xml version="1.0"?><svg fill="#000000" xmlns="http://www.w3.org/2000/svg"  viewBox="0 0 30 30" width="30px" height="30px">    <path d="M 15 3 C 8.373 3 3 8.373 3 15 C 3 21.627 8.373 27 15 27 C 21.627 27 27 21.627 27 15 C 27 8.373 21.627 3 15 3 z M 22 8.03125 L 21.966797 8.0644531 C 21.934797 12.043453 18.989 16.011 17 18 C 17 20 16 23 14 24 L 14 19 L 12 20 L 10.03125 18 L 11.03125 16 L 6.03125 16 C 7.03125 14 10.03125 13 12.03125 13 C 14.02125 11.011 17.988797 8.0652031 21.966797 8.0332031 L 21.96875 8.0332031 C 21.97975 8.0322031 21.989 8.03125 22 8.03125 z M 18 11 A 1 1 0 0 0 17 12 A 1 1 0 0 0 18 13 A 1 1 0 0 0 19 12 A 1 1 0 0 0 18 11 z M 9.5917969 18.591797 L 9.7832031 18.783203 C 9.7832031 18.783203 9.1972656 19.499922 9.1972656 20.794922 L 9.1972656 20.806641 L 9.2070312 20.808594 C 10.502031 20.808594 11.21875 20.222656 11.21875 20.222656 L 11.408203 20.412109 C 11.408203 20.412109 10.791906 21.998 8.0039062 22 L 8 22 L 8.0058594 21.996094 C 8.0078594 19.207094 9.5917969 18.591797 9.5917969 18.591797 z"/></svg>